<?xml version="1.0" encoding="UTF-8" standalone="no"?><!DOCTYPE svg PUBLIC "-//W3C//DTD SVG 1.1//EN" "http://www.w3.org/Graphics/SVG/1.1/DTD/svg11.dtd"><svg width="100%" height="100%" viewBox="0 0 24 24" version="1.1" xmlns="http://www.w3.org/2000/svg" xmlns:xlink="http://www.w3.org/1999/xlink" xml:space="preserve" xmlns:serif="http://www.serif.com/" style="fill-rule:evenodd;clip-rule:evenodd;stroke-linejoin:round;stroke-miterlimit:2;"><path d="M15,21l-6,-2.1l-4.65,1.8c-0.333,0.133 -0.642,0.096 -0.925,-0.113c-0.283,-0.208 -0.425,-0.487 -0.425,-0.837l0,-14c0,-0.217 0.063,-0.408 0.188,-0.575c0.124,-0.167 0.295,-0.292 0.512,-0.375l5.3,-1.8l6,2.1l4.65,-1.8c0.333,-0.133 0.642,-0.096 0.925,0.112c0.283,0.209 0.425,0.488 0.425,0.838l0,14c0,0.217 -0.063,0.408 -0.188,0.575c-0.125,0.167 -0.295,0.292 -0.512,0.375l-5.3,1.8Zm-1,-2.45l0,-11.7l-4,-1.4l0,11.7l4,1.4Zm2,0l3,-1l0,-11.85l-3,1.15l0,11.7Zm-11,-0.25l3,-1.15l0,-11.7l-3,1l0,11.85Zm11,-11.45l0,11.7l0,-11.7Zm-8,-1.4l0,11.7l0,-11.7Z" style="fill:#fff;fill-rule:nonzero;"/></svg>