<?xml version="1.0" encoding="UTF-8" standalone="no"?><!DOCTYPE svg PUBLIC "-//W3C//DTD SVG 1.1//EN" "http://www.w3.org/Graphics/SVG/1.1/DTD/svg11.dtd"><svg width="100%" height="100%" viewBox="0 0 24 24" version="1.1" xmlns="http://www.w3.org/2000/svg" xmlns:xlink="http://www.w3.org/1999/xlink" xml:space="preserve" xmlns:serif="http://www.serif.com/" style="fill-rule:evenodd;clip-rule:evenodd;stroke-linejoin:round;stroke-miterlimit:2;"><path d="M19.6,21l-6.3,-6.3c-0.5,0.4 -1.075,0.717 -1.725,0.95c-0.65,0.233 -1.342,0.35 -2.075,0.35c-1.817,0 -3.354,-0.629 -4.613,-1.887c-1.258,-1.259 -1.887,-2.796 -1.887,-4.613c0,-1.817 0.629,-3.354 1.888,-4.612c1.258,-1.259 2.795,-1.888 4.612,-1.888c1.817,0 3.354,0.629 4.613,1.888c1.258,1.258 1.887,2.795 1.887,4.612c0,0.733 -0.117,1.425 -0.35,2.075c-0.233,0.65 -0.55,1.225 -0.95,1.725l6.3,6.3l-1.4,1.4Zm-10.1,-7c1.25,0 2.312,-0.437 3.187,-1.312c0.875,-0.875 1.313,-1.938 1.313,-3.188c-0,-1.25 -0.438,-2.312 -1.313,-3.187c-0.875,-0.875 -1.937,-1.313 -3.187,-1.313c-1.25,0 -2.313,0.438 -3.188,1.313c-0.874,0.875 -1.312,1.937 -1.312,3.187c0,1.25 0.438,2.313 1.313,3.188c0.875,0.875 1.937,1.312 3.187,1.312Z" style="fill:#fff;fill-rule:nonzero;"/></svg>